# xmcd
#
# Track frame offsets:
#	150
#	15343
#	34165
#	48281
#	68861
#	87745
#	101027
#	125429
#	146315
#	160941
#
# Disc length: 2361 seconds
#
# Revision: 0
# Processed by: cddbd v1.4PL0 Copyright (c) Steve Scherf et al.
# Submitted via: EasyCDDAExtractor 4.5.0.2
#
DISCID=8009370a
DTITLE=The Cheatin' Wives - Blame It on the Whiskey
DYEAR=1900
DGENRE=Country
TTITLE0=Blame It On the Whiskey
TTITLE1=Still Got the Bottle
TTITLE2=Summertime
TTITLE3=Ghost of Terrell County
TTITLE4=Green Eyes
TTITLE5=Kendall County
TTITLE6=Tear Alone
TTITLE7=Exit 109
TTITLE8=The Worst Country Song Ever Written
TTITLE9=Kendall County - redux
EXTD=
EXTT0=
EXTT1=
EXTT2=
EXTT3=
EXTT4=
EXTT5=
EXTT6=
EXTT7=
EXTT8=
EXTT9=
PLAYORDER=
